<?xml version="1.0" encoding="UTF-8" standalone="no"?>
<svg
   xmlns:dc="http://purl.org/dc/elements/1.1/"
   xmlns:cc="http://creativecommons.org/ns#"
   xmlns:rdf="http://www.w3.org/1999/02/22-rdf-syntax-ns#"
   xmlns:svg="http://www.w3.org/2000/svg"
   xmlns="http://www.w3.org/2000/svg"
   xmlns:xlink="http://www.w3.org/1999/xlink"
   xmlns:sodipodi="http://sodipodi.sourceforge.net/DTD/sodipodi-0.dtd"
   xmlns:inkscape="http://www.inkscape.org/namespaces/inkscape"
   width="166.39561mm"
   height="92.241867mm"
   viewBox="0 0 166.39561 92.241867"
   version="1.1"
   id="svg887"
   inkscape:version="1.0 (4035a4fb49, 2020-05-01)"
   sodipodi:docname="cloud.svg">
  <defs
     id="defs881">
    <linearGradient
       inkscape:collect="always"
       id="linearGradient1564">
      <stop
         style="stop-color:#f2f2f2;stop-opacity:1;"
         offset="0"
         id="stop1560" />
      <stop
         style="stop-color:#ffffff;stop-opacity:1;"
         offset="1"
         id="stop1562" />
    </linearGradient>
    <linearGradient
       inkscape:collect="always"
       xlink:href="#linearGradient1564"
       id="linearGradient1566"
       x1="372.74631"
       y1="351.53308"
       x2="387.89859"
       y2="142.4315"
       gradientUnits="userSpaceOnUse" />
  </defs>
  <sodipodi:namedview
     id="base"
     pagecolor="#ffffff"
     bordercolor="#666666"
     borderopacity="1.0"
     inkscape:pageopacity="0.0"
     inkscape:pageshadow="2"
     inkscape:zoom="1.5021458"
     inkscape:cx="341.21943"
     inkscape:cy="181.81907"
     inkscape:document-units="mm"
     inkscape:current-layer="layer1"
     inkscape:document-rotation="0"
     showgrid="false"
     inkscape:window-width="1920"
     inkscape:window-height="1017"
     inkscape:window-x="-8"
     inkscape:window-y="-8"
     inkscape:window-maximized="1" />
  <metadata
     id="metadata884">
    <rdf:RDF>
      <cc:Work
         rdf:about="">
        <dc:format>image/svg+xml</dc:format>
        <dc:type
           rdf:resource="http://purl.org/dc/dcmitype/StillImage" />
        <dc:title />
      </cc:Work>
    </rdf:RDF>
  </metadata>
  <g
     inkscape:label="Layer 1"
     inkscape:groupmode="layer"
     id="layer1"
     transform="translate(-15.63584,-30.490508)">
    <path
       style="fill:none;stroke:#000000;stroke-width:0.264583px;stroke-linecap:butt;stroke-linejoin:miter;stroke-opacity:1"
       d="m 181.47601,86.328057 c -2.29411,9.052592 -8.14486,17.836523 -34.47777,21.381563 -8.08954,10.07823 -21.05172,17.24831 -45.43582,14.16528 C 77.818385,125.10459 59.873944,117.10014 51.850287,106.64054 30.998668,104.37526 18.679974,96.636588 15.768902,86.060787 16.439628,70.45512 26.685042,68.413594 35.546847,64.411956 38.533937,50.887848 50.2403,42.505986 64.411956,41.961316 71.711442,31.227043 87.749192,28.576718 106.90781,32.072343 c 16.05228,-0.170036 24.87552,1.819808 33.14142,14.432555 13.87956,0.276497 21.72046,7.180463 25.92515,13.898015 17.03985,8.641715 16.5321,17.283429 15.50163,25.925144 z"
       id="path1528"
       sodipodi:nodetypes="ccccccccccc" />
    <path
       style="fill:none;stroke:#000000;stroke-width:0.264583px;stroke-linecap:butt;stroke-linejoin:miter;stroke-opacity:1"
       d="m 51.716652,77.374526 c 10.330696,-2.30774 17.419685,1.795653 21.114292,8.018087 5.105412,-7.963503 17.879909,-11.814159 25.657878,-11.225321"
       id="path1538"
       sodipodi:nodetypes="ccc" />
    <path
       style="fill:none;stroke:#000000;stroke-width:0.264583px;stroke-linecap:butt;stroke-linejoin:miter;stroke-opacity:1"
       d="M 87.001793,75.678382 C 87.849137,63.048839 99.098482,58.839365 106.5069,61.071085"
       id="path1540"
       sodipodi:nodetypes="cc" />
    <path
       style="fill:none;stroke:#000000;stroke-width:0.264583px;stroke-linecap:butt;stroke-linejoin:miter;stroke-opacity:1"
       d="M 90.540356,65.885278 C 85.970854,59.876694 80.318573,58.834391 73.10088,61.470921"
       id="path1542"
       sodipodi:nodetypes="cc" />
    <path
       style="fill:none;stroke:#000000;stroke-width:0.264583px;stroke-linecap:butt;stroke-linejoin:miter;stroke-opacity:1"
       d="m 108.7787,86.328055 c 9.83641,-2.912749 19.34044,-1.006135 28.4642,6.414471 v 0"
       id="path1544"
       sodipodi:nodetypes="ccc" />
    <path
       style="fill:none;stroke:#000000;stroke-width:0.264583px;stroke-linecap:butt;stroke-linejoin:miter;stroke-opacity:1"
       d="m 127.6212,86.862596 c 5.77124,-5.378929 13.31812,-8.668873 25.12333,-6.949009"
       id="path1546"
       sodipodi:nodetypes="cc" />
    <path
       transform="scale(0.26458333)"
       style="fill:url(#linearGradient1566);fill-opacity:1;stroke-width:1.01015"
       d="m 323.11626,461.54118 c -26.44884,-2.32174 -55.09098,-9.87987 -75.95012,-20.04184 -16.16284,-7.87404 -28.27388,-16.41948 -40.4558,-28.54518 l -10.84497,-10.79494 -11.37838,-1.66114 C 147.4575,395.09214 117.72414,385.03903 96.242956,370.662 86.535599,364.16502 73.306883,350.94792 68.704684,343.14789 c -6.272702,-10.63128 -8.440195,-17.32736 -7.701746,-23.79317 1.147439,-10.04691 4.37665,-22.17727 7.643217,-28.71137 9.005336,-18.0133 20.646877,-26.85841 54.199015,-41.17977 12.35716,-5.27452 12.36676,-5.28129 13.42003,-9.45789 4.3028,-17.06214 14.09837,-34.08857 27.17019,-47.22658 17.75602,-17.84591 42.2472,-29.09146 70.51261,-32.37707 l 10.41472,-1.21062 4.10409,-5.31966 c 12.31746,-15.96572 33.3255,-27.51336 61.01239,-33.53714 11.34318,-2.46791 13.84137,-2.63851 38.89088,-2.65576 22.25022,-0.0153 29.32686,0.35279 41.92133,2.18064 8.5676,1.24343 23.05391,2.43826 33.33503,2.74947 38.91358,1.17791 60.05811,7.87311 81.11756,25.68505 5.58246,4.72161 16.1378,16.89889 20.75233,23.94116 l 2.67955,4.08928 11.86997,1.20257 c 21.01442,2.129 37.80712,7.79608 53.7913,18.15313 9.74968,6.31737 23.1285,19.2118 28.71124,27.67174 2.94361,4.46067 5.1304,6.42872 10.00381,9.00318 20.38519,10.76878 39.41249,27.54433 46.32946,40.84668 6.50941,12.51857 8.63359,25.60901 6.96646,42.93148 -2.86856,29.80617 -19.58521,53.11619 -48.52937,67.67029 -16.45144,8.27234 -42.11057,15.84145 -68.47344,20.19877 l -13.37508,2.21067 -11.87873,11.93332 c -8.58195,8.6214 -14.89799,13.89123 -22.75748,18.98787 -32.70671,21.20928 -76.25587,29.14386 -128.36037,23.38706 -5.92033,-0.65411 -11.68573,-0.64097 -17.10867,0.039 -12.10784,1.51818 -40.1343,2.04437 -52.24872,0.98094 z M 519.06868,350.22589 c -0.0264,-1.93722 -15.60044,-12.49675 -25.41898,-17.23456 -4.82275,-2.32715 -8.6522,-4.67528 -8.50988,-5.21806 0.55281,-2.10829 14.69184,-11.89843 23.33943,-16.16067 16.72406,-8.243 37.06397,-11.71696 57.09859,-9.75215 10.57694,1.03728 13.25371,0.95079 11.91782,-0.38511 -0.28367,-0.28366 -5.44649,-0.98295 -11.47293,-1.55396 -29.86119,-2.82936 -57.45684,5.04768 -78.221,22.32778 l -6.01799,5.00822 -8.83242,-2.55954 c -13.27931,-3.84819 -26.58084,-5.07639 -39.57521,-3.65419 -10.12701,1.10838 -20.87371,3.35154 -22.14435,4.62217 -1.38239,1.38239 0.84185,1.25464 8.85915,-0.50883 25.67372,-5.64714 49.71917,-2.29486 73.74113,10.28057 5.27805,2.76304 12.77843,7.46451 16.66752,10.44771 7.55053,5.79179 8.59606,6.3214 8.56912,4.34062 z M 280.36331,317.86673 c 15.99274,-19.95724 48.31622,-34.29876 82.76096,-36.71998 7.02017,-0.49347 9.21084,-0.94954 7.95005,-1.65512 -2.35144,-1.31592 -23.06547,0.69655 -32.82731,3.18936 -4.15503,1.06103 -7.74638,1.74638 -7.98078,1.52299 -1.17959,-1.12423 2.55436,-15.03896 6.02161,-22.43978 10.13201,-21.62663 34.40475,-34.82364 57.8903,-31.47476 7.20187,1.02693 9.95223,0.85617 8.56432,-0.53174 -0.28192,-0.28192 -3.88059,-0.93684 -7.99705,-1.45538 -17.50287,-2.20482 -37.06702,4.01562 -48.07031,15.28402 l -3.69861,3.78772 -7.25695,-6.8934 c -11.53126,-10.95356 -22.41785,-14.97483 -37.76462,-13.94941 -8.92363,0.59624 -22.31583,4.07689 -22.31583,5.79992 0,1.32283 0.55492,1.24572 8.08122,-1.12293 9.51266,-2.99378 21.20144,-3.60615 29.26953,-1.53342 8.2701,2.12463 14.1391,5.55138 21.49064,12.54779 5.52915,5.26206 7.04914,8.3748 4.77562,9.77991 -3.33498,2.06113 -11.08907,23.5379 -11.08907,30.71377 0,2.32731 -0.77408,2.90174 -6.81853,5.05983 -15.55274,5.55288 -31.53786,15.88797 -40.99567,26.50552 l -5.36139,6.01881 -2.91311,-4.20362 c -4.67366,-6.74409 -15.02454,-15.54497 -22.94464,-19.50879 -8.67416,-4.34121 -16.48102,-6.46547 -26.97863,-7.34093 -8.21663,-0.68525 -25.14696,1.07894 -26.82309,2.79503 -0.68866,0.70507 1.24033,0.765 6.06091,0.1883 10.18644,-1.21864 25.3774,-0.94377 31.81981,0.57576 14.38527,3.39295 29.58083,13.73618 37.87704,25.7819 2.13126,3.0945 3.94518,5.62636 4.03092,5.62636 0.0858,0 2.44495,-2.85648 5.24266,-6.34773 z"
       id="path1558" />
  </g>
</svg>
